<?xml version="1.0" encoding="UTF-8"?>
<!-- Generator: Adobe Illustrator 27.3.1, SVG Export Plug-In . SVG Version: 6.00 Build 0)  -->
<svg xmlns="http://www.w3.org/2000/svg" xmlns:xlink="http://www.w3.org/1999/xlink" version="1.1" id="Layer_1" x="0px" y="0px" viewBox="0 0 639.293 293.818" style="enable-background:new 0 0 639.293 293.818;" xml:space="preserve">
<style type="text/css">
	.st0{display:none;}
	.st1{display:inline;}
	.st2{fill:#FDFDFE;}
	.st3{fill:#5A1371;}
	.st4{fill:#AC89B8;}
	.st5{fill:#FDFDFD;}
	.st6{fill:#FCFBFD;}
	.st7{display:inline;fill:#01B1DD;}
	.st8{display:inline;fill:#006F46;}
	.st9{display:inline;fill:#FF9900;}
	.st10{display:inline;fill:#221F1F;}
	.st11{fill:#221F1F;}
	.st12{display:none;fill:#7BB134;}
	.st13{fill:#0F5092;}
	.st14{fill:#FFFFFF;}
	.st15{fill:#D6223B;}
</style>
<g id="N6HjtP.tif" class="st0">
	<g class="st1">
		<path class="st2" d="M152.835,119.558c-1.28,0.977-2.754,1.781-3.809,2.959c-5.706,6.373-6.182,17.141-1.19,24.259    c6.729,9.595,21.631,12.099,31.999,5.377c8.59-5.569,12.552-16.128,9.893-26.557c-2.356-9.24-8.342-15.587-16.629-19.789    c-10.001-5.071-20.676-6.116-31.647-4.248c-9.028,1.538-17.142,5.202-23.832,11.492c-12.567,11.815-16.939,26.567-14.159,43.274    c2.266,13.618,9.471,24.333,21.516,31.437c10.547,6.22,22.009,7.91,33.987,5.84c11.081-1.915,20.36-7.155,27.461-15.946    c6.203-7.679,9.442-16.54,10.018-26.354c0.126-2.144-0.1-4.316-0.282-6.466c-0.039-0.456-0.532-1.127-0.93-1.221    c-0.34-0.081-1.003,0.432-1.243,0.844c-0.698,1.2-1.298,2.462-1.859,3.734c-2.201,4.985-5.365,9.219-9.849,12.367    c-8.661,6.081-18.27,7.686-28.476,5.417c-16.216-3.605-26.657-17.444-23.17-34.38c2.015-9.786,7.503-17.038,17.294-20.235    c7.709-2.517,15.112-1.689,21.412,3.814c3.538,3.091,4.527,7.249,3.095,11.695c-1.347,4.186-4.467,6.501-8.871,6.943    c-6.106,0.612-12.199-3.827-10.849-11.252c0.171-0.939,0.166-1.909,0.24-2.867c0.007-0.101,0.015-0.201,0.022-0.302    C152.931,119.448,152.883,119.503,152.835,119.558z M384.164,177.55c4.148,0,8.024,0,11.951,0    c0.073-1.394,0.191-2.637,0.195-3.881c0.031-9.276,0.064-18.552,0.042-27.828c-0.007-3.069,0.051-6.166-0.316-9.202    c-0.777-6.431-3.907-11.457-9.954-14.178c-8.771-3.946-17.748-3.794-26.721-0.664c-4.86,1.695-8.978,4.528-12.442,8.702    c2.878,2.693,5.702,5.337,8.572,8.024c2.766-2.863,5.706-4.906,9.163-6.134c4.993-1.774,9.901-1.832,14.598,0.943    c1.788,1.056,2.876,2.659,3.323,4.679c0.465,2.098-0.624,3.832-2.757,4.045c-4.689,0.466-9.408,0.654-14.082,1.226    c-3.513,0.429-7.097,0.911-10.434,2.018c-7.045,2.336-10.876,7.58-11.154,14.898c-0.265,6.969,2.911,12.409,9.268,15.526    c7.812,3.83,15.88,3.918,23.876,0.528c2.26-0.958,4.268-2.508,6.486-3.843C383.9,174.019,384.027,175.715,384.164,177.55z     M244.664,178.672c2.289-0.275,4.62-0.36,6.859-0.858c10.835-2.411,18.602-8.589,21.914-19.304    c3.464-11.205,1.538-21.668-6.826-30.16c-7.548-7.664-17.115-10.024-27.64-8.196c-16.985,2.951-26.859,18.256-23.728,34.531    C218.041,169.232,229.681,178.482,244.664,178.672z M336.953,129.127c-0.654-0.694-1.244-1.461-1.969-2.068    c-7.021-5.878-15.167-7.974-24.204-7.237c-15.093,1.23-26.399,12.853-26.943,27.9c-0.297,8.217,1.963,15.624,7.812,21.597    c12.144,12.403,32.601,12.348,44.919,0.011c0.957-0.958,1.142-1.82,0.203-2.855c-1.905-2.101-3.775-4.234-5.703-6.313    c-1.09-1.175-1.807-1.206-3.091-0.197c-1.134,0.891-2.192,1.877-3.323,2.772c-7.494,5.928-19.224,4.366-24.113-3.408    c-3.98-6.327-4.066-12.988-0.546-19.573c2.238-4.188,5.867-6.649,10.545-7.524c4.87-0.911,9.389,0.11,13.536,2.704    c1.614,1.009,3.05,2.302,4.594,3.487C330.955,137.262,333.041,134.931,336.953,129.127z"></path>
		<path class="st3" d="M536.635,153.333c-0.237,0.898-0.495,1.791-0.708,2.694c-3.109,13.176-14.433,22.195-28.077,22.47    c-7.517,0.152-14.431-1.608-20.397-6.271c-7.809-6.102-11.26-14.326-10.985-24.078c0.431-15.261,11.144-26.774,26.451-28.297    c12.035-1.197,21.974,2.784,29.029,12.878c2.514,3.596,3.833,7.712,4.423,12.055c0.035,0.26,0.173,0.506,0.264,0.759    C536.635,148.139,536.635,150.736,536.635,153.333z M508.244,166.372c5.301-0.206,10.259-3.332,13.097-9.603    c1.762-3.894,2.07-7.983,1.09-12.118c-1.376-5.806-4.578-10.219-10.482-11.98c-5.916-1.765-11.59-1.153-16.337,3.205    c-3.542,3.252-5.138,7.503-5.408,12.214C489.654,157.686,495.713,166.307,508.244,166.372z"></path>
		<path class="st4" d="M465.778,99.378c-0.003,0.099-0.007,0.199-0.01,0.298c-4.5,0.016-9.001,0.031-13.501,0.047    c-0.027-0.115-0.055-0.23-0.082-0.345C456.716,99.378,461.247,99.378,465.778,99.378z"></path>
		<path class="st3" d="M152.958,119.697c-0.076,0.956-0.071,1.926-0.242,2.865c-1.35,7.424,4.743,11.864,10.849,11.252    c4.404-0.442,7.524-2.757,8.871-6.943c1.431-4.447,0.443-8.605-3.095-11.695c-6.3-5.503-13.702-6.331-21.412-3.814    c-9.791,3.197-15.28,10.449-17.294,20.235c-3.487,16.936,6.954,30.775,23.17,34.38c10.206,2.269,19.815,0.663,28.476-5.417    c4.484-3.149,7.648-7.382,9.849-12.367c0.561-1.272,1.161-2.534,1.859-3.734c0.24-0.412,0.903-0.925,1.243-0.844    c0.398,0.094,0.891,0.765,0.93,1.221c0.182,2.149,0.408,4.321,0.282,6.466c-0.576,9.814-3.815,18.675-10.018,26.354    c-7.101,8.791-16.381,14.031-27.461,15.946c-11.977,2.07-23.44,0.38-33.987-5.84c-12.046-7.104-19.25-17.819-21.516-31.437    c-2.781-16.707,1.592-31.458,14.159-43.274c6.69-6.29,14.804-9.955,23.832-11.492c10.97-1.868,21.646-0.822,31.647,4.248    c8.287,4.201,14.272,10.549,16.629,19.789c2.66,10.429-1.303,20.988-9.893,26.557c-10.368,6.722-25.27,4.218-31.999-5.377    c-4.991-7.118-4.515-17.886,1.19-24.259c1.055-1.178,2.529-1.982,3.809-2.959C152.876,119.604,152.917,119.651,152.958,119.697z"></path>
		<path class="st3" d="M452.267,99.723c4.5-0.016,9.001-0.031,13.501-0.047c0.019,0.383,0.054,0.766,0.055,1.149    c0.032,18.408,0.072,36.817,0.085,55.225c0.005,6.728-0.052,13.456-0.085,20.184c-0.002,0.376-0.039,0.752-0.068,1.295    c-4.023,0-7.999,0.053-11.968-0.07c-0.477-0.015-1.189-0.926-1.327-1.529c-0.263-1.139-0.188-2.356-0.258-3.623    c-1.456,0.972-2.761,1.944-4.157,2.762c-13.046,7.637-35.799,3.301-40.659-17.93c-2.197-9.597-0.883-18.658,5.076-26.701    c9.071-12.243,27.336-14.465,39.181-4.886c0.175,0.142,0.365,0.265,0.625,0.454C452.267,117.163,452.267,108.443,452.267,99.723z     M436.472,166.364c7.119,0.012,12.723-3.874,15.117-10.55c1.652-4.608,1.508-9.212-0.126-13.815    c-3.722-10.487-17.203-13.228-25.113-6.756c-3.948,3.23-5.659,7.624-6.097,12.606    C419.354,158.086,426.576,166.347,436.472,166.364z"></path>
		<path class="st3" d="M384.164,177.55c-0.138-1.835-0.265-3.531-0.386-5.142c-2.218,1.335-4.226,2.885-6.486,3.843    c-7.996,3.389-16.064,3.302-23.876-0.528c-6.356-3.116-9.532-8.557-9.268-15.526c0.278-7.318,4.108-12.561,11.154-14.898    c3.337-1.106,6.921-1.588,10.434-2.018c4.674-0.571,9.394-0.759,14.082-1.226c2.133-0.212,3.222-1.947,2.757-4.045    c-0.448-2.019-1.536-3.623-3.323-4.679c-4.697-2.775-9.605-2.717-14.598-0.943c-3.457,1.228-6.397,3.271-9.163,6.134    c-2.87-2.686-5.694-5.33-8.572-8.024c3.464-4.174,7.582-7.007,12.442-8.702c8.973-3.13,17.951-3.282,26.721,0.664    c6.048,2.721,9.177,7.746,9.954,14.178c0.367,3.036,0.308,6.133,0.316,9.202c0.022,9.276-0.011,18.552-0.042,27.828    c-0.004,1.243-0.122,2.486-0.195,3.881C392.189,177.55,388.312,177.55,384.164,177.55z M382.853,151.92    c-1.814,0.182-3.631,0.345-5.442,0.551c-4.875,0.556-9.76,1.047-14.617,1.731c-2.725,0.384-4.447,2.409-4.85,5.179    c-0.363,2.494,0.834,4.868,3.142,6.133c3.338,1.829,6.93,2.412,10.623,1.633C381.024,165.185,383.676,160.139,382.853,151.92z"></path>
		<path class="st3" d="M244.664,178.672c-14.984-0.19-26.624-9.44-29.422-23.987c-3.13-16.275,6.744-31.581,23.728-34.531    c10.525-1.828,20.092,0.533,27.64,8.196c8.364,8.492,10.29,18.955,6.826,30.16c-3.312,10.715-11.079,16.894-21.914,19.304    C249.284,178.312,246.953,178.397,244.664,178.672z M244.365,166.441c4.704-0.051,8.351-1.31,11.296-4.1    c5.188-4.913,6.532-11.056,5.016-17.82c-1.319-5.885-4.755-10.198-10.72-11.908c-5.887-1.687-11.485-1.025-16.158,3.331    c-3.393,3.163-5.033,7.248-5.333,11.797C227.829,157.373,233.53,166.078,244.365,166.441z"></path>
		<path class="st3" d="M336.953,129.127c-3.912,5.804-5.998,8.135-8.284,9.294c-1.544-1.184-2.98-2.477-4.594-3.487    c-4.147-2.594-8.667-3.615-13.536-2.704c-4.677,0.875-8.306,3.337-10.545,7.524c-3.52,6.584-3.434,13.245,0.546,19.573    c4.889,7.773,16.619,9.336,24.113,3.408c1.131-0.895,2.19-1.881,3.323-2.772c1.284-1.009,2-0.978,3.091,0.197    c1.929,2.079,3.798,4.213,5.703,6.313c0.939,1.036,0.754,1.897-0.203,2.855c-12.318,12.338-32.775,12.392-44.919-0.011    c-5.849-5.974-8.11-13.38-7.812-21.597c0.544-15.047,11.851-26.669,26.943-27.9c9.038-0.737,17.183,1.36,24.204,7.237    C335.708,127.665,336.298,128.432,336.953,129.127z"></path>
		<path class="st3" d="M152.835,119.558c0.048-0.055,0.096-0.11,0.144-0.164c-0.008,0.101-0.015,0.201-0.021,0.303    C152.917,119.651,152.876,119.604,152.835,119.558z"></path>
		<path class="st5" d="M508.244,166.372c-12.531-0.065-18.59-8.686-18.04-18.283c0.27-4.711,1.866-8.962,5.408-12.214    c4.747-4.358,10.421-4.97,16.337-3.205c5.904,1.762,9.106,6.175,10.482,11.98c0.98,4.135,0.672,8.224-1.09,12.118    C518.503,163.041,513.545,166.167,508.244,166.372z"></path>
		<path class="st5" d="M436.472,166.364c-9.896-0.017-17.118-8.279-16.219-18.515c0.438-4.981,2.148-9.375,6.097-12.606    c7.91-6.472,21.391-3.732,25.113,6.756c1.634,4.603,1.778,9.207,0.126,13.815C449.195,162.491,443.59,166.377,436.472,166.364z"></path>
		<path class="st6" d="M382.853,151.92c0.823,8.218-1.829,13.264-11.144,15.228c-3.693,0.778-7.285,0.196-10.623-1.633    c-2.308-1.265-3.505-3.638-3.142-6.133c0.403-2.77,2.125-4.795,4.85-5.179c4.857-0.684,9.742-1.175,14.617-1.731    C379.223,152.265,381.039,152.103,382.853,151.92z"></path>
		<path class="st5" d="M244.365,166.441c-10.835-0.364-16.536-9.068-15.9-18.699c0.3-4.549,1.941-8.634,5.333-11.797    c4.673-4.356,10.27-5.018,16.158-3.331c5.965,1.709,9.401,6.023,10.72,11.908c1.517,6.765,0.172,12.907-5.016,17.82    C252.715,165.131,249.069,166.39,244.365,166.441z"></path>
	</g>
</g>
<g class="st0">
	<path id="path3053" class="st7" d="M322.793,214.741c0.02-18.241,0.065-33.465,0.102-33.831c0.036-0.366,0.129-1.393,0.207-2.282   c0.367-4.195,1.119-8.547,2.195-12.696c0.551-2.123,0.872-3.124,1.471-4.581c2.654-6.457,7.305-11.482,13.564-14.655   c1.906-0.966,3.193-1.464,5.935-2.293c5.786-1.75,11.031-2.708,17.579-3.212c1.937-0.149,8.081-0.15,10.128-0.002   c7.076,0.514,14.076,1.921,20.209,4.061c2.8,0.977,5.861,2.684,8.369,4.668c1.022,0.808,3.469,3.255,4.316,4.316   c1.534,1.922,3.062,4.476,4.037,6.752c1.189,2.774,2.448,7.722,3.196,12.56l0.244,1.576c1.045,6.783,0.967,13.217-0.002,20.813   l-0.286,1.807c-0.743,4.696-1.927,9.389-3.047,12.08c-2.059,4.948-5.458,9.231-9.753,12.289c-3.243,2.309-6.276,3.629-11.829,5.147   c-6.02,1.645-11.832,2.501-18.547,2.73l-1.857,0.063l-4.717-12.969c-2.595-7.133-4.711-12.977-4.703-12.987   s0.377,0.111,0.821,0.269c3.508,1.246,9.89,1.482,14.881,0.55c2.432-0.454,4.64-1.513,6.373-3.057   c2.553-2.274,3.789-4.655,4.7-9.052c0.605-2.922,0.762-4.64,0.718-7.854c-0.043-3.14-0.265-4.945-0.956-7.77   c-0.862-3.528-1.969-5.606-4.028-7.566c-1.927-1.833-4.069-2.919-6.805-3.45c-2.265-0.439-3.638-0.56-6.374-0.559   c-2.777,0-4.349,0.137-6.476,0.565c-4.171,0.837-7.506,3.288-9.333,6.857c-1.288,2.515-2.213,6.67-2.443,10.972   c-0.024,0.445-0.046,15.005-0.049,32.357l-0.004,31.549h-13.935h-13.935L322.793,214.741L322.793,214.741z M267.415,229.965   c-7.571-0.325-14.555-1.568-21.35-3.801c-2.019-0.663-2.894-1.021-4.517-1.849c-6.846-3.489-11.909-9.468-14.246-16.826   c-0.426-1.342-1.288-4.852-1.669-6.8c-0.657-3.357-1.2-7.555-1.366-10.553c-0.095-1.712-0.096-7.508-0.002-9.191   c0.395-7.061,2.119-15.6,4.058-20.103c2.808-6.521,7.966-11.764,14.462-14.698c1.414-0.639,2.606-1.069,4.85-1.751   c15.374-4.671,31.796-4.459,47.167,0.608c4.672,1.54,9.065,4.368,12.229,7.873c2.514,2.784,4.549,6.151,5.793,9.585   c1.367,3.772,2.913,11.519,3.236,16.214c0.034,0.497,0.079,1.01,0.1,1.141c0.165,1.037,0.232,6.647,0.111,9.367   c-0.319,7.178-1.994,15.998-3.918,20.636c-0.95,2.29-2.649,5.153-4.204,7.085c-2.554,3.174-6.157,6-9.923,7.785   c-3.97,1.882-11.446,3.833-17.879,4.667C276.207,229.893,271.215,230.128,267.415,229.965L267.415,229.965z M273.527,205.352   c4.744-0.46,7.372-1.48,9.866-3.828c2.012-1.894,3.183-4.044,4.028-7.401c1.414-5.614,1.417-11.546,0.008-17.153   c-0.824-3.28-1.869-5.275-3.743-7.149c-3.035-3.035-6.871-4.226-13.56-4.21c-5.35,0.012-8.548,0.739-11.289,2.563   c-1.647,1.097-3.235,2.781-4.131,4.385c-1.11,1.985-1.955,4.976-2.467,8.73c-0.219,1.606-0.264,5.848-0.081,7.608   c0.366,3.521,1.217,6.971,2.205,8.938c1.311,2.611,3.282,4.578,5.902,5.89c1.887,0.945,3.614,1.336,7.531,1.705   C268.749,205.52,272.291,205.472,273.527,205.352L273.527,205.352z M267.32,134.836c-0.968-0.041-2.123-0.103-2.568-0.137   c-1.016-0.079-2.729-0.242-3.043-0.29c-0.131-0.02-0.495-0.063-0.808-0.096c-0.314-0.033-0.678-0.075-0.808-0.094   c-0.131-0.019-0.445-0.062-0.698-0.097s-0.531-0.076-0.618-0.092c-0.087-0.016-0.607-0.101-1.156-0.19   c-4.451-0.716-10.727-2.364-13.837-3.634c-2.437-0.995-5.131-2.579-7.18-4.22c-1.311-1.05-3.465-3.22-4.437-4.471   c-2.411-3.102-4.025-6.244-5.069-9.868c-1.494-5.19-2.526-11.248-2.829-16.612c-0.095-1.682-0.098-7.496-0.005-9.13   c0.257-4.481,0.993-9.422,2.069-13.884c0.846-3.507,1.432-5.204,2.665-7.713c3.319-6.753,9.127-11.838,16.354-14.316   c5.789-1.986,12.305-3.314,19.067-3.887c2-0.17,7.557-0.227,9.843-0.102c6.879,0.377,13.646,1.631,20.161,3.737   c3.468,1.121,6.702,2.836,9.402,4.987c1.131,0.901,3.561,3.322,4.425,4.409c2.035,2.559,3.79,5.786,4.817,8.859   c0.864,2.583,1.933,7.398,2.458,11.064c0.473,3.305,0.704,5.996,0.822,9.581l0.052,1.593h-13.926h-13.926l-0.052-0.214   c-0.028-0.118-0.054-0.596-0.056-1.062c-0.015-2.88-0.831-7.205-1.87-9.917c-0.834-2.174-2.54-4.339-4.556-5.782   c-1.99-1.424-3.911-2.097-7.37-2.584c-1.517-0.214-6.817-0.245-8.369-0.049c-1.561,0.197-3.399,0.556-4.232,0.828   c-3.62,1.181-6.58,3.906-8.041,7.405c-0.684,1.636-1.365,4.44-1.719,7.08c-0.264,1.965-0.325,5.919-0.122,7.86   c0.363,3.459,1.234,7.015,2.179,8.89c1.825,3.624,5.317,6.262,9.309,7.032c4.193,0.809,9.211,0.807,13.229-0.005   c2.617-0.529,4.886-1.726,6.742-3.555c2.188-2.157,3.302-4.499,4.16-8.749c0.158-0.784,0.295-1.432,0.304-1.439   c0.033-0.027,26.067,12.14,26.146,12.22c0.102,0.102-0.566,2.755-1.116,4.435c-2.138,6.523-6.571,12.08-12.461,15.618   c-1.836,1.103-3.646,1.927-5.812,2.644c-4.301,1.425-9.282,2.601-13.636,3.221c-0.904,0.129-2.688,0.342-3.281,0.393   c-0.366,0.031-0.815,0.072-0.999,0.091c-0.375,0.039-1.593,0.125-2.663,0.187C272.64,134.877,268.964,134.905,267.32,134.836   L267.32,134.836z M367.642,134.894c-0.022-0.019-0.896-0.062-1.942-0.096s-2.052-0.079-2.235-0.101   c-0.183-0.022-0.707-0.068-1.165-0.101c-0.458-0.034-0.95-0.075-1.094-0.093c-0.144-0.017-0.54-0.059-0.88-0.092   c-0.539-0.052-1.529-0.179-2.282-0.291c-0.131-0.02-0.43-0.062-0.666-0.093c-3.64-0.491-9.269-1.858-13.28-3.224   c-4.325-1.473-7.648-3.517-10.909-6.709c-3.814-3.734-6.232-7.937-7.711-13.407c-1.238-4.575-1.965-8.805-2.478-14.415   c-0.242-2.65-0.244-9.553-0.003-11.613c0.024-0.203,0.09-0.905,0.148-1.559c0.431-4.916,1.771-11.68,3.038-15.344   c1.95-5.638,5.588-10.531,10.368-13.946c3.064-2.189,5.961-3.485,11.031-4.934c11.605-3.317,24.16-3.863,35.995-1.566   c4.649,0.903,9.616,2.31,12.408,3.515c6.92,2.988,12.377,8.64,15.209,15.751c1.056,2.65,2.2,7.329,2.903,11.87l0.244,1.576   c0.929,6.977,1.006,12.907-0.002,20.813l-0.279,1.759c-0.567,3.569-1.516,7.698-2.329,10.128   c-1.416,4.233-3.665,7.906-6.758,11.035c-2.858,2.891-5.932,4.951-9.641,6.46c-3.173,1.291-9.312,2.902-13.801,3.622   c-0.549,0.088-1.067,0.173-1.151,0.188c-0.084,0.016-0.379,0.057-0.656,0.092c-0.277,0.035-0.581,0.079-0.675,0.097   s-0.462,0.062-0.818,0.098s-0.718,0.078-0.805,0.094c-0.161,0.03-1.831,0.189-2.933,0.28   C372.893,134.822,367.733,134.975,367.642,134.894L367.642,134.894z M372.529,110.147c1.866-0.183,3.745-0.537,4.785-0.902   c3.352-1.178,6.16-3.694,7.635-6.845c0.748-1.597,1.579-4.902,1.971-7.84c0.207-1.552,0.24-6.213,0.056-7.798   c-0.353-3.032-1.097-6.223-1.873-8.03c-0.678-1.582-1.929-3.35-3.166-4.477c-1.297-1.182-3.141-2.252-4.824-2.802   c-0.833-0.272-2.671-0.632-4.232-0.828c-1.345-0.169-6.756-0.17-7.988-0.002c-3.678,0.504-5.371,1.05-7.371,2.375   c-2.013,1.334-3.525,3.059-4.562,5.203c-0.964,1.994-1.798,5.434-2.157,8.892c-0.148,1.429-0.144,5.362,0.007,6.752   c0.27,2.484,0.906,5.482,1.553,7.323c1.552,4.415,5.257,7.609,9.915,8.548C365.401,110.346,368.964,110.495,372.529,110.147   L372.529,110.147z"></path>
</g>
<g class="st0">
	<path class="st8" d="M358.303,150.94c0,0-1.239,0.083-1.847,0.18c-2.35,0.378-3.049,1.014-3.049,3.907v22.819   c0,3.112,1.938,3.297,4.671,3.451c6.672,0.378,10.548-5.548,10.548-15.133C368.627,156.573,364.777,150.94,358.303,150.94   c0,0-1.239,0.084-1.847,0.18c-2.35,0.378-3.049,1.014-3.049,3.907v22.819c0,3.112,1.938,3.297,4.671,3.451   c6.672,0.378,10.548-5.548,10.548-15.133C368.627,156.573,364.777,150.941,358.303,150.94 M288.265,151.274   c-5.984,0-9.68,5.71-9.68,15.173c0,9.251,3.636,14.851,9.789,14.851c5.986,0,9.739-5.819,9.739-14.954   C298.114,157.094,294.303,151.274,288.265,151.274 M323.982,151.274c-5.986,0-9.689,5.71-9.689,15.173   c0,9.251,3.646,14.851,9.797,14.851c5.98,0,9.733-5.819,9.733-14.954C333.823,157.094,330.018,151.274,323.982,151.274    M358.304,150.941c0,0-1.239,0.083-1.847,0.18c-2.35,0.378-3.049,1.014-3.049,3.907v22.819c0,3.112,1.938,3.297,4.671,3.451   c6.672,0.378,10.548-5.548,10.548-15.133C368.627,156.574,364.777,150.941,358.304,150.941c0,0-1.239,0.084-1.847,0.18   c-2.35,0.378-3.049,1.014-3.049,3.907v22.819c0,3.112,1.938,3.297,4.671,3.451c6.672,0.378,10.548-5.548,10.548-15.133   C368.627,156.574,364.777,150.941,358.304,150.941 M323.982,151.275c-5.986,0-9.689,5.71-9.689,15.173   c0,9.251,3.646,14.851,9.797,14.851c5.98,0,9.733-5.819,9.733-14.954C333.823,157.095,330.018,151.275,323.982,151.275    M288.266,151.275c-5.984,0-9.68,5.71-9.68,15.173c0,9.251,3.636,14.851,9.789,14.851c5.986,0,9.739-5.819,9.739-14.954   C298.114,157.095,294.303,151.275,288.266,151.275 M293.155,204.903c-0.091-0.167-1.432-2.939-1.591-3.286   c-0.148-0.308-0.519-0.326-0.655,0.013c-0.154,0.378-1.476,3.036-1.565,3.227c-0.148,0.315,0.019,0.521,0.321,0.521h3.162   C293.059,205.378,293.289,205.172,293.155,204.903 M288.265,151.275c-5.984,0-9.68,5.71-9.68,15.173   c0,9.251,3.636,14.851,9.789,14.851c5.986,0,9.739-5.819,9.739-14.954C298.114,157.095,294.303,151.275,288.265,151.275    M323.982,151.275c-5.986,0-9.689,5.71-9.689,15.173c0,9.251,3.646,14.851,9.797,14.851c5.98,0,9.733-5.819,9.733-14.954   C333.823,157.095,330.018,151.275,323.982,151.275 M358.304,150.942c0,0-1.239,0.083-1.847,0.18   c-2.35,0.378-3.049,1.014-3.049,3.907v22.819c0,3.112,1.938,3.297,4.671,3.451c6.672,0.378,10.548-5.548,10.548-15.133   C368.627,156.575,364.777,150.942,358.304,150.942c0,0-1.239,0.084-1.847,0.18c-2.35,0.378-3.049,1.014-3.049,3.907v22.819   c0,3.112,1.938,3.297,4.671,3.451c6.672,0.378,10.548-5.548,10.548-15.133C368.627,156.575,364.778,150.942,358.304,150.942    M323.982,151.276c-5.986,0-9.689,5.71-9.689,15.173c0,9.251,3.646,14.851,9.797,14.851c5.98,0,9.733-5.819,9.733-14.954   C333.823,157.096,330.018,151.276,323.982,151.276 M288.266,151.276c-5.984,0-9.68,5.71-9.68,15.173   c0,9.251,3.636,14.851,9.789,14.851c5.986,0,9.739-5.819,9.739-14.954C298.114,157.096,294.304,151.276,288.266,151.276    M293.156,204.904c-0.091-0.167-1.432-2.939-1.591-3.286c-0.148-0.308-0.519-0.326-0.655,0.013   c-0.154,0.378-1.476,3.036-1.565,3.227c-0.148,0.315,0.019,0.521,0.321,0.521h3.162   C293.059,205.379,293.289,205.173,293.156,204.904c-0.091-0.167-1.432-2.939-1.591-3.286c-0.148-0.308-0.519-0.326-0.655,0.013   c-0.154,0.378-1.476,3.036-1.565,3.227c-0.148,0.315,0.019,0.521,0.321,0.521h3.162   C293.059,205.38,293.289,205.174,293.156,204.904 M288.266,151.275c-5.984,0-9.68,5.71-9.68,15.173   c0,9.251,3.636,14.851,9.789,14.851c5.986,0,9.739-5.819,9.739-14.954C298.114,157.095,294.303,151.275,288.266,151.275    M313.743,199.251h-4.029c-0.417,0-0.853,0.146-0.853,0.666v2.939c0,0.462,0.436,0.731,0.853,0.731h4.029   c1.354,0,2.457-0.712,2.457-2.168S315.097,199.251,313.743,199.251 M323.983,151.276c-5.986,0-9.689,5.71-9.689,15.173   c0,9.251,3.646,14.851,9.797,14.851c5.98,0,9.733-5.819,9.733-14.954C333.824,157.095,330.019,151.276,323.983,151.276    M358.305,150.942c0,0-1.239,0.083-1.847,0.18c-2.35,0.378-3.049,1.014-3.049,3.907v22.819c0,3.112,1.938,3.297,4.671,3.451   c6.672,0.378,10.548-5.548,10.548-15.133C368.628,156.575,364.778,150.942,358.305,150.942c0,0-1.239,0.084-1.847,0.18   c-2.35,0.378-3.049,1.014-3.049,3.907v22.819c0,3.112,1.938,3.297,4.671,3.451c6.672,0.378,10.548-5.548,10.548-15.133   C368.628,156.575,364.778,150.943,358.305,150.942 M323.983,151.276c-5.986,0-9.689,5.71-9.689,15.173   c0,9.251,3.646,14.851,9.797,14.851c5.98,0,9.733-5.819,9.733-14.954C333.824,157.096,330.019,151.276,323.983,151.276    M288.267,151.276c-5.984,0-9.68,5.71-9.68,15.173c0,9.251,3.636,14.851,9.789,14.851c5.986,0,9.739-5.819,9.739-14.954   C298.115,157.096,294.304,151.276,288.267,151.276 M313.744,199.252h-4.029c-0.417,0-0.853,0.146-0.853,0.666v2.939   c0,0.462,0.436,0.731,0.853,0.731h4.029c1.354,0,2.457-0.712,2.457-2.168S315.098,199.252,313.744,199.252 M293.156,204.904   c-0.091-0.167-1.432-2.939-1.591-3.286c-0.148-0.308-0.519-0.326-0.655,0.013c-0.154,0.378-1.476,3.036-1.565,3.227   c-0.148,0.315,0.019,0.521,0.321,0.521h3.162C293.06,205.379,293.29,205.174,293.156,204.904c-0.091-0.167-1.432-2.939-1.591-3.286   c-0.148-0.308-0.519-0.326-0.655,0.013c-0.154,0.378-1.476,3.036-1.565,3.227c-0.148,0.315,0.019,0.521,0.321,0.521h3.162   C293.06,205.38,293.29,205.174,293.156,204.904 M288.266,151.276c-5.984,0-9.68,5.71-9.68,15.173   c0,9.251,3.636,14.851,9.789,14.851c5.986,0,9.739-5.819,9.739-14.954C298.115,157.095,294.304,151.276,288.266,151.276    M313.744,199.252h-4.029c-0.417,0-0.853,0.146-0.853,0.666v2.939c0,0.462,0.436,0.731,0.853,0.731h4.029   c1.354,0,2.457-0.712,2.457-2.168S315.097,199.252,313.744,199.252 M323.983,151.276c-5.986,0-9.689,5.71-9.689,15.173   c0,9.251,3.646,14.851,9.797,14.851c5.98,0,9.733-5.819,9.733-14.954C333.824,157.095,330.019,151.276,323.983,151.276    M358.305,150.942c0,0-1.239,0.083-1.847,0.18c-2.35,0.378-3.049,1.014-3.049,3.907v22.819c0,3.112,1.938,3.297,4.671,3.451   c6.672,0.378,10.548-5.548,10.548-15.133C368.629,156.575,364.779,150.942,358.305,150.942c0,0-1.239,0.084-1.847,0.18   c-2.35,0.378-3.049,1.014-3.049,3.907v22.819c0,3.112,1.938,3.297,4.671,3.451c6.672,0.378,10.548-5.548,10.548-15.133   C368.629,156.576,364.779,150.943,358.305,150.942 M323.984,151.276c-5.986,0-9.689,5.71-9.689,15.173   c0,9.251,3.646,14.851,9.797,14.851c5.98,0,9.733-5.819,9.733-14.954C333.825,157.096,330.02,151.276,323.984,151.276    M288.267,151.276c-5.984,0-9.68,5.71-9.68,15.173c0,9.251,3.636,14.851,9.789,14.851c5.986,0,9.739-5.819,9.739-14.954   C298.116,157.096,294.305,151.276,288.267,151.276 M313.745,199.252h-4.029c-0.417,0-0.853,0.146-0.853,0.666v2.939   c0,0.462,0.436,0.731,0.853,0.731h4.029c1.354,0,2.457-0.712,2.457-2.168S315.098,199.252,313.745,199.252 M293.157,204.905   c-0.091-0.167-1.432-2.939-1.591-3.286c-0.148-0.308-0.519-0.326-0.655,0.013c-0.154,0.378-1.476,3.036-1.565,3.227   c-0.148,0.315,0.019,0.521,0.321,0.521h3.162C293.06,205.38,293.29,205.174,293.157,204.905 M404.055,184.111   c0-0.378-0.378-0.469-0.751-0.469h-0.512v0.931h0.384C403.645,184.573,404.055,184.547,404.055,184.111 M404.055,186.433   l-0.949-1.341h-0.321v1.341h-0.566v-3.31h1.244c0.777,0,1.129,0.308,1.129,0.988c0,0.66-0.365,0.916-0.846,0.968l0.961,1.354   L404.055,186.433z M403.291,182.583c-1.278,0-2.227,0.957-2.227,2.277c0,1.322,0.949,2.271,2.227,2.271   c1.283,0,2.225-0.949,2.225-2.271C405.516,183.54,404.574,182.583,403.291,182.583 M291.557,201.618   c-0.148-0.308-0.519-0.326-0.655,0.013c-0.154,0.378-1.476,3.036-1.565,3.227c-0.148,0.315,0.019,0.521,0.321,0.521h3.162   c0.232,0,0.462-0.206,0.328-0.475C293.058,204.737,291.717,201.965,291.557,201.618 M288.258,151.276   c-5.984,0-9.68,5.71-9.68,15.173c0,9.251,3.636,14.851,9.789,14.851c5.986,0,9.739-5.819,9.739-14.954   C298.107,157.095,294.296,151.276,288.258,151.276 M313.736,199.252h-4.029c-0.417,0-0.853,0.146-0.853,0.666v2.939   c0,0.462,0.436,0.731,0.853,0.731h4.029c1.354,0,2.457-0.712,2.457-2.168S315.089,199.252,313.736,199.252 M323.976,151.276   c-5.986,0-9.689,5.71-9.689,15.173c0,9.251,3.646,14.851,9.797,14.851c5.98,0,9.733-5.819,9.733-14.954   C333.817,157.095,330.012,151.276,323.976,151.276 M368.621,166.167c0-9.591-3.85-15.224-10.323-15.224c0,0-1.239,0.083-1.847,0.18   c-2.35,0.378-3.049,1.014-3.049,3.907v22.819c0,3.112,1.938,3.297,4.671,3.451C364.746,181.679,368.621,175.752,368.621,166.167    M406.183,139.761c-0.217,0.999-0.84,1.367-1.938,1.367l-1.391,0.006h-21.359c-1.834,0-2.457-0.365-2.457-1.578   c0-0.801,0.623-1.463,1.354-1.463h1.103c0.378,0,0.758-0.334,0.873-0.699c0.167-0.443,0.211-0.712,0.211-2.181V110.86   c0-1.411-0.044-1.695-0.211-2.136c-0.115-0.482-0.553-0.808-0.873-0.808h-1.103c-0.731,0-1.398-0.712-1.398-1.521   c0-1.207,0.668-1.598,2.501-1.598h21.742c1.098,0,1.713,0.367,1.938,1.367l0.77,3.787c0.295,1.398-0.198,2.149-1.192,2.149   c-0.527,0-1.033-0.135-1.4-0.847c-0.063-0.109-0.287-0.506-0.538-1.174c-0.532-1.4-1.63-1.572-4.165-1.572h-5.131   c-2.971,0-3.304,0.391-3.304,3.284v6.468c0,1.218,0.172,1.751,0.501,1.969c0.25,0.172,0.655,0.211,2.214,0.211h2.533   c2.285,0,2.611-0.167,2.778-1.257l0.039-0.334c0.167-0.923,0.655-1.359,1.476-1.359c1.14,0,1.521,0.647,1.521,2.559v4.575   c0,1.904-0.38,2.559-1.521,2.559c-0.821,0-1.309-0.493-1.476-1.417l-0.057-0.36c-0.161-1.09-0.488-1.252-2.778-1.252h-2.514   c-1.559,0-1.964,0.039-2.214,0.211c-0.328,0.219-0.501,0.745-0.501,1.971v6.902c0,2.882,0.172,3.49,1.033,3.824   c0.699,0.263,1.456,0.378,3.24,0.378l5.415-0.013c1.943,0,3.317-0.608,3.991-2.019c0.308-0.642,0.404-0.886,0.469-0.996   c0.365-0.712,0.942-1.025,1.474-1.025c0.988,0,1.476,0.751,1.187,2.149L406.183,139.761L406.183,139.761z M403.29,187.699   c-1.572,0-2.83-1.27-2.83-2.837c0-1.578,1.257-2.841,2.83-2.841c1.565,0,2.83,1.263,2.83,2.841   C406.12,186.428,404.855,187.699,403.29,187.699 M390.606,185.242c-2.008,0-4.163-0.284-5.717-0.771   c-0.783-0.211-0.872-0.269-1.179-0.269c-0.462,0-0.694,0.109-1.161,0.54c-0.514,0.391-0.783,0.501-1.265,0.501   c-0.91,0-1.359-0.501-1.68-1.804l-1.374-5.446c-0.102-0.326-0.141-0.821-0.141-1.09c0-0.968,0.751-1.7,1.719-1.7   c0.566,0,1.033,0.289,1.367,0.732l0.783,1.077c1.886,2.663,4.934,4.311,8.046,4.311c3.534,0,5.947-1.977,5.947-4.857   c0-1.476-0.61-2.778-1.771-4.087c-1.179-1.302-2.642-2.501-5.774-4.677c-5.157-3.612-5.639-3.94-7.332-5.889   c-1.372-1.591-2.073-3.542-2.073-5.717c0-5.279,4.017-8.769,10.015-8.769c1.539,0,3.112,0.146,4.697,0.488   c0.165,0.058,0.608,0.159,1.378,0.334c0.25,0.05,0.534,0.108,0.745,0.108c0.36,0,0.775-0.178,1.25-0.493   c0.54-0.391,0.712-0.436,1.15-0.436c0.801,0,1.315,0.545,1.534,1.521l1.302,5.889c0.096,0.256,0.096,0.584,0.096,0.757   c0,0.712-0.636,1.302-1.565,1.302c-0.584,0-0.944-0.217-1.445-0.916c-1.226-1.854-1.456-2.068-2.592-2.945   c-1.461-1.142-3.336-1.752-5.118-1.752c-2.516,0-4.145,1.432-4.145,3.664c0,0.801,0.141,1.628,0.59,2.231   c0.551,0.821,1.424,1.682,2.501,2.503c0.673,0.48,1.534,1.103,2.694,1.912c4.298,2.995,5.71,4.087,7.462,5.876   c1.841,1.904,2.945,4.625,2.945,7.423C402.495,181.085,397.798,185.242,390.606,185.242 M376.858,199.278h-3.169   c-0.436,0-0.751,0.143-0.751,0.668l0.019,9.476c0,0.668-0.475,0.745-1.218,0.745c-0.718,0-1.2-0.072-1.2-0.719v-9.489   c0-0.462-0.167-0.681-0.744-0.681h-3.208c-0.519,0-0.668-0.499-0.668-0.916c0-0.462-0.039-1.354,0.649-1.354h10.238   c0.462,0,0.77,0.256,0.77,1.103C377.576,198.862,377.377,199.278,376.858,199.278 M350.528,202.209h4.523   c0.545,0,0.688,0.477,0.688,1.168c0,0.603-0.13,1.129-0.636,1.129h-4.51c-0.36,0-0.686,0.25-0.686,0.668v1.917   c0,0.462,0.25,0.681,0.621,0.681h7.757c0.514,0,0.694,0.339,0.694,1.187c0,0.61-0.141,1.111-0.686,1.111h-9.99   c-0.579,0-0.816-0.276-0.816-0.962v-11.254c0-0.512,0.206-0.872,0.803-0.872h10.021c0.597,0,0.705,0.397,0.705,1.109   c0,0.662-0.089,1.187-0.736,1.187h-7.835c-0.313,0-0.538,0.245-0.538,0.584v1.771C349.907,202.005,350.176,202.209,350.528,202.209    M342.298,182.739c0-0.821,0.545-1.513,1.294-1.513h1.111c0.373,0,0.744-0.289,0.923-0.712c0.109-0.391,0.167-0.719,0.167-2.144   v-24.243c0-1.419-0.057-1.751-0.167-2.144c-0.18-0.415-0.551-0.712-0.923-0.712h-1.111c-0.749,0-1.294-0.692-1.294-1.513   c0-1.187,0.82-1.354,2.405-1.591c1.591-0.232,6.03-0.84,12.825-0.84c6.787,0,11.002,1.474,14.338,4.849   c3.203,3.215,4.94,8.167,4.94,14.05c0,6.588-2.22,12.035-6.26,15.25c-3.138,2.54-7.076,3.696-13.018,3.696   c-6.794,0-11.234-0.61-12.825-0.842C343.118,184.101,342.298,183.934,342.298,182.739 M323.916,185.223   c-8.782,0-15.069-4.959-17.09-12.953c-0.026-0.058-0.045-0.115-0.057-0.18c-0.18-0.898-0.988-0.962-1.181-0.006   c0,0.032-0.026,0.063-0.039,0.096c-2.04,8.109-8.359,13.042-17.348,13.042c-10.772,0-17.784-7.455-17.784-18.824   c0-11.636,6.961-19.041,17.892-19.041c8.975,0,15.36,5.005,17.315,13.164c0.206,0.936,1.001,0.866,1.174-0.024   c0-0.013,0-0.026,0.019-0.033c1.995-8.161,8.276-13.107,17.211-13.107c10.881,0,17.95,7.345,17.95,18.772   c0,11.638-7.017,19.092-18.06,19.092 M338.997,210.173c-1.103,0-1.406-0.172-1.687-0.514l-4.189-4.471   c-0.571-0.495-1.142-0.571-1.925-0.571c-0.438,0-0.777,0.449-0.777,0.968v3.811c0,0.725-0.621,0.771-1.302,0.771   c-0.719,0-1.098-0.2-1.098-0.777v-11.632c0-0.686,0.43-0.801,1.278-0.801c0.668,0,1.122,0.154,1.122,0.783v3.51   c0,0.564,0.258,0.84,0.61,0.84c1.02,0,1.239-0.219,1.617-0.545c0.423-0.36,4.721-4.306,4.721-4.306   c0.54-0.462,1.085-0.454,1.604,0.045c0.43,0.412,0.621,0.873,0.141,1.348c-0.334,0.326-4.106,3.74-4.106,3.74   c-0.469,0.404-0.352,0.783-0.032,1.135c0,0,4.528,4.992,5.003,5.506C340.689,209.787,340.035,210.173,338.997,210.173    M315.976,205.951c0.104,0.156,1.938,2.817,2.207,3.215c0.404,0.603,0.039,1.001-1.211,1.001c-0.699,0-1.168-0.122-1.47-0.571   l-2.032-3.158c-0.232-0.352-0.566-0.577-1.022-0.577h-2.906c-0.352,0-0.686,0.289-0.686,0.642l0.019,3.151   c0,0.621-1.205,0.519-1.602,0.519c-0.521,0-0.809-0.148-0.809-0.731l0.019-11.979c0-0.313,0.269-0.501,0.558-0.501h6.891   c2.661,0,4.664,1.713,4.664,4.46c0,2.374-1.713,3.151-2.4,3.733C315.855,205.452,315.772,205.656,315.976,205.951 M296.609,210.173   c-0.399,0-1.001-0.065-1.189-0.501l-0.846-1.751c-0.109-0.232-0.334-0.417-0.61-0.417h-5.396c-0.339,0-0.647,0.256-0.84,0.738   l-0.749,1.43c-0.167,0.417-0.983,0.482-1.361,0.482c-0.334,0-1.43-0.039-1.085-0.771l5.73-11.886   c0.159-0.347,0.462-0.61,1.001-0.61c0.538,0,0.833,0.18,1.012,0.564c0,0,5.472,11.664,5.626,12.005   C298.187,210.063,297.006,210.173,296.609,210.173 M275.867,210.173c-0.334,0-0.955-0.185-0.955-0.623l-0.923-6.985   c-0.059-0.289-0.167-0.417-0.399-0.417c-0.185,0-0.282,0.089-0.41,0.25l-3.138,4.017c-0.161,0.217-0.373,0.352-0.623,0.352   c-0.358,0-0.514-0.091-0.718-0.391l-2.887-3.894c-0.128-0.161-0.269-0.206-0.417-0.206c-0.23,0-0.347,0.206-0.378,0.475   l-0.905,6.755c-0.084,0.558-0.77,0.668-1.335,0.668c-0.391,0-1.057-0.185-1.057-0.686l1.328-11.388   c0.141-0.681,0.287-1.072,1.27-1.072c0.25,0,0.655,0.07,0.968,0.558l3.586,5.042c0.193,0.276,0.412,0.508,0.649,0.501   c0.237-0.006,0.48-0.25,0.686-0.519l3.785-5.146c0.232-0.352,0.584-0.501,1.001-0.501c0.454,0,0.788,0.104,0.981,0.868   l1.328,11.675C277.369,210.173,276.323,210.173,275.867,210.173 M253.304,178.489c0,1.469,0,1.732,0.128,2.116   c0.23,0.436,0.725,0.719,1.161,0.719h1.231c0.853,0,1.445,0.699,1.445,1.521c0,1.2-0.668,1.578-2.676,1.578h-10.021   c-1.86,0-2.514-0.378-2.514-1.578c0-0.821,0.655-1.521,1.404-1.521h1.111c0.371,0,0.738-0.284,0.918-0.719   c0.115-0.384,0.172-0.647,0.172-2.116v-24.356c0-1.411-0.044-1.693-0.219-2.129c-0.115-0.482-0.551-0.816-0.872-0.816h-1.103   c-0.732,0-1.398-0.705-1.398-1.519c0-1.2,0.666-1.591,2.501-1.591h23.61c1.096,0,1.719,0.365,1.936,1.365l0.771,3.787   c0.295,1.391-0.2,2.149-1.189,2.149c-0.532,0-1.038-0.141-1.404-0.853c-0.065-0.104-0.282-0.508-0.54-1.168   c-0.532-1.398-1.63-1.578-4.163-1.578H256.6c-2.976,0-3.31,0.397-3.31,3.284v6.474c0,1.218,0.172,1.745,0.506,1.969   c0.25,0.174,0.647,0.211,2.214,0.211h4.502c2.285,0,2.611-0.167,2.778-1.257l0.039-0.339c0.167-0.923,0.655-1.361,1.469-1.361   c1.15,0,1.528,0.655,1.528,2.561v4.58c0,1.906-0.378,2.559-1.528,2.559c-0.814,0-1.302-0.493-1.469-1.417l-0.058-0.36   c-0.161-1.09-0.488-1.257-2.778-1.257h-4.484c-1.567,0-1.964,0.039-2.214,0.211c-0.334,0.224-0.506,0.751-0.506,1.977l0.019,8.873   L253.304,178.489z M235.378,110.521c-0.814-2.238-1.072-2.507-2.817-2.885c-1.161-0.213-1.521-0.592-1.521-1.471   c0-0.923,0.579-1.411,1.828-1.411h11.247c1.239,0,1.789,0.488,1.789,1.469c0,0.918-0.551,1.291-1.962,1.413   c-1.2,0.108-1.687,0.493-1.687,1.359c0,0.373,0.045,0.764,0.198,1.213l0.43,1.244c0,0,6.012,17.027,6.961,19.766   c0.159,0.438,0.655,0.417,0.821-0.07c1.057-3.034,3.931-11.38,4.035-11.72c0.295-0.962,0.423-1.977,0.076-3.087   c-0.121-0.391-1.962-5.819-1.962-5.819c-0.206-0.59-0.328-1.025-0.451-1.25c-0.321-0.796-0.762-1.085-2.019-1.419   c-1.124-0.276-1.554-0.647-1.554-1.456c0-1.046,0.629-1.643,1.899-1.643h10.689c1.239,0,1.841,0.488,1.841,1.469   c0,0.866-0.551,1.291-1.764,1.463c-1.45,0.167-1.841,0.501-1.841,1.476c0,0.493,0.109,0.981,0.558,2.29   c0,0,5.274,16.688,6.108,19.312c0.159,0.493,0.629,0.384,0.762-0.052c0.822-2.668,6.038-20.19,6.038-20.19   c0.154-0.545,0.211-0.981,0.211-1.307c0-0.816-0.584-1.252-1.906-1.419c-1.2-0.109-1.751-0.655-1.751-1.521   c0-1.09,0.623-1.521,2.071-1.521h18.876c1.797,0,2.392,0.365,2.392,1.559c0,0.892-0.595,1.539-1.346,1.539h-1.046   c-0.449,0-0.873,0.334-1.04,0.694c-0.102,0.404-0.146,0.783-0.146,2.142v7.026c0,2.515,0.217,2.726,2.233,2.726h7.397   c1.083,0,1.643-0.172,1.917-0.488c0.25-0.334,0.25-0.545,0.25-2.566v-6.698c0-1.417,0-1.737-0.134-2.142   c-0.193-0.417-0.623-0.694-0.996-0.694h-1.038c-0.821,0-1.482-0.647-1.482-1.539c0-1.194,0.66-1.559,2.52-1.559h9.9   c1.853,0,2.514,0.365,2.514,1.559c0,0.892-0.662,1.539-1.406,1.539h-1.109c-0.373,0-0.809,0.334-0.925,0.694   c-0.154,0.404-0.191,0.783-0.191,2.142v24.457c0,1.417,0.037,1.737,0.191,2.181c0.117,0.378,0.553,0.649,0.925,0.649h1.109   c0.809,0,1.406,0.712,1.406,1.519c0,1.207-0.597,1.58-2.514,1.58h-9.9c-1.86,0-2.45-0.373-2.45-1.58   c0-0.807,0.66-1.519,1.411-1.519h1.038c0.373,0,0.803-0.271,0.996-0.649c0.134-0.443,0.134-0.764,0.134-2.181v-7.95   c0-2.021,0-2.233-0.25-2.559c-0.274-0.321-0.834-0.495-1.917-0.495h-7.397c-2.016,0-2.233,0.213-2.233,2.728v8.276   c0,1.417,0.044,1.737,0.146,2.181c0.167,0.378,0.592,0.649,1.04,0.649h1.046c0.751,0,1.309,0.712,1.309,1.584   c0,1.142-0.623,1.515-2.355,1.515h-9.924c-1.828,0-2.49-0.373-2.49-1.58c0-0.807,0.662-1.519,1.411-1.519h1.079   c0.384,0,0.833-0.271,0.936-0.649c0.167-0.443,0.167-0.725,0.167-2.181v-24.457c0-2.778-1.304-2.963-2.259-2.835   c-0.962,0.135-1.526,0.745-2.118,2.668l-8.68,27.947c-0.783,2.663-1.521,3.425-3.149,3.425c-1.624,0-2.451-0.705-3.106-2.72   c0,0-4.484-13.407-4.632-13.85c-0.154-0.443-0.616-0.456-0.744-0.032c-0.122,0.428-4.947,13.882-4.947,13.882   c-0.525,1.304-0.66,1.682-1.103,2.125c-0.428,0.321-1.142,0.595-1.854,0.595c-1.578,0-2.353-0.655-3.104-2.72l-10.689-28.652   L235.378,110.521z M307.662,94.034c1.821-6.763,8.397-13.589,15.666-11.503c6.166,1.758,5.73,6.852,10.214,8.448   c1.61,0.571,1.482,2.188,0.078,2.457c-2.368,0.449-5.563-1.27-7.95-3.432c-2.791-2.533-7.327-2.424-9.541-0.738   c-0.968,0.738-0.475,1.445,0.412,1.246c2.053-0.443,5.53-0.558,8.205,2.444c2.629,2.95,7.53,5.587,11.868,2.757   c1.194-0.775,1.969-2.379,3.182-2.032c1.296,0.365,1.315,2.251-0.384,4.445c-4.011,5.172-8.122,4.556-12.53,8.873   c-4.402,4.317-5.292,9.226-5.292,15.461c0,9.669,3.803,15.525,10.232,15.525c6.255,0,10.18-6.081,10.18-15.639   c0-7.879-1.865-12.973-6.544-14.77c-2.264-0.84-1.878-3.052,1.04-3.399c2.405-0.282,4.76,0.538,7.345,2.444   c4.46,3.284,6.685,8.506,6.685,15.501c0,12.17-7.332,19.959-18.873,19.959c-11.265,0-18.6-7.788-18.6-19.677   c0-7.647,2.874-13.537,7.846-16.86c2.079-1.554,5.595-3.343,9.04-4.51c0.712-0.245,0.707-1.509-0.558-1.265   c-1.508,0.302-4.28,0.519-6.57-0.404c-5.138-2.027-6.633-5.652-12.682-3.054C308.309,97.094,307.136,95.985,307.662,94.034    M353.635,104.798h10.06c1.962,0,2.629,0.391,2.629,1.598c0,0.866-0.668,1.521-1.443,1.521h-1.187   c-0.501,0-0.988,0.269-1.142,0.712c-0.161,0.365-0.161,0.699-0.161,2.118v22.869c0,2.394,0.104,2.952,0.745,3.323   c0.558,0.386,1.391,0.488,3.579,0.488h3.067c1.943,0,3.317-0.608,3.991-2.019c0.308-0.649,0.404-0.886,0.467-0.996   c0.367-0.712,0.944-1.033,1.471-1.033c0.994,0,1.482,0.758,1.192,2.157l-0.84,4.228c-0.219,0.999-0.84,1.367-1.938,1.367h-20.49   c-1.815,0-2.412-0.36-2.412-1.572c0-0.801,0.597-1.463,1.359-1.463h1.053c0.36,0,0.801-0.334,0.91-0.699   c0.161-0.404,0.211-0.668,0.211-2.027v-24.623c0-1.471-0.05-1.687-0.211-2.118c-0.109-0.443-0.551-0.712-0.91-0.712h-1.053   c-0.82,0-1.482-0.655-1.482-1.521C351.101,105.189,351.763,104.797,353.635,104.798 M319.647,34.638   c-62.007,0-112.272,50.266-112.272,112.272c0,62.007,50.266,112.272,112.272,112.272c62.014,0,112.272-50.266,112.272-112.272   C431.918,84.902,381.659,34.638,319.647,34.638 M404.05,184.114c0-0.378-0.378-0.469-0.751-0.469h-0.512v0.931h0.384   C403.64,184.575,404.05,184.549,404.05,184.114 M404.05,186.435l-0.949-1.341h-0.321v1.341h-0.566v-3.31h1.244   c0.777,0,1.129,0.308,1.129,0.988c0,0.66-0.365,0.916-0.846,0.968l0.961,1.354L404.05,186.435z M403.286,182.586   c-1.278,0-2.227,0.957-2.227,2.277c0,1.322,0.949,2.271,2.227,2.271c1.283,0,2.225-0.949,2.225-2.271   C405.511,183.542,404.569,182.586,403.286,182.586 M293.144,204.906c-0.091-0.167-1.432-2.939-1.591-3.286   c-0.148-0.308-0.519-0.326-0.655,0.013c-0.154,0.378-1.476,3.036-1.565,3.227c-0.148,0.315,0.019,0.521,0.321,0.521h3.162   C293.048,205.381,293.278,205.175,293.144,204.906 M313.732,199.254h-4.029c-0.417,0-0.853,0.146-0.853,0.666v2.939   c0,0.462,0.436,0.731,0.853,0.731h4.029c1.354,0,2.457-0.712,2.457-2.168S315.086,199.254,313.732,199.254 M288.255,151.279   c-5.984,0-9.68,5.71-9.68,15.173c0,9.251,3.636,14.851,9.789,14.851c5.986,0,9.739-5.819,9.739-14.954   C298.103,157.098,294.292,151.279,288.255,151.279 M323.971,151.279c-5.986,0-9.689,5.71-9.689,15.173   c0,9.251,3.646,14.851,9.797,14.851c5.98,0,9.733-5.819,9.733-14.954C333.812,157.098,330.007,151.279,323.971,151.279    M358.293,150.945c0,0-1.239,0.083-1.847,0.18c-2.35,0.378-3.049,1.014-3.049,3.907v22.819c0,3.112,1.938,3.297,4.671,3.451   c6.672,0.378,10.548-5.548,10.548-15.133C368.616,156.578,364.767,150.945,358.293,150.945 M404.042,184.114   c0-0.378-0.378-0.469-0.751-0.469h-0.512v0.931h0.384C403.632,184.576,404.042,184.55,404.042,184.114 M404.042,186.436   l-0.949-1.341h-0.321v1.341h-0.566v-3.31h1.244c0.777,0,1.129,0.308,1.129,0.988c0,0.66-0.365,0.916-0.846,0.968l0.961,1.354   L404.042,186.436z M403.278,182.586c-1.278,0-2.227,0.957-2.227,2.277c0,1.322,0.949,2.272,2.227,2.272   c1.283,0,2.225-0.949,2.225-2.272C405.503,183.543,404.561,182.586,403.278,182.586 M358.286,150.945c0,0-1.239,0.083-1.847,0.18   c-2.35,0.378-3.049,1.014-3.049,3.907v22.819c0,3.112,1.938,3.297,4.671,3.451c6.672,0.378,10.548-5.548,10.548-15.133   C368.609,156.578,364.759,150.945,358.286,150.945 M323.964,151.279c-5.986,0-9.689,5.71-9.689,15.173   c0,9.251,3.646,14.851,9.797,14.851c5.98,0,9.733-5.819,9.733-14.954C333.805,157.099,330,151.279,323.964,151.279    M313.724,199.255h-4.029c-0.417,0-0.853,0.146-0.853,0.666v2.939c0,0.462,0.436,0.731,0.853,0.731h4.029   c1.354,0,2.457-0.712,2.457-2.168C316.181,199.967,315.078,199.255,313.724,199.255 M288.247,151.279   c-5.984,0-9.68,5.71-9.68,15.173c0,9.251,3.636,14.851,9.789,14.851c5.986,0,9.739-5.819,9.739-14.954   C298.095,157.099,294.285,151.279,288.247,151.279 M293.137,204.907c-0.091-0.167-1.432-2.939-1.591-3.286   c-0.148-0.308-0.519-0.326-0.655,0.013c-0.154,0.378-1.476,3.036-1.565,3.227c-0.148,0.315,0.019,0.521,0.321,0.521h3.162   C293.04,205.382,293.27,205.177,293.137,204.907c-0.091-0.167-1.432-2.939-1.591-3.286c-0.148-0.308-0.519-0.326-0.655,0.013   c-0.154,0.378-1.476,3.036-1.565,3.227c-0.148,0.315,0.019,0.521,0.321,0.521h3.162C293.04,205.383,293.27,205.177,293.137,204.907    M313.724,199.256h-4.029c-0.417,0-0.853,0.146-0.853,0.666v2.939c0,0.462,0.436,0.731,0.853,0.731h4.029   c1.354,0,2.457-0.712,2.457-2.168S315.078,199.256,313.724,199.256 M288.247,151.279c-5.984,0-9.68,5.71-9.68,15.173   c0,9.251,3.636,14.851,9.789,14.851c5.986,0,9.739-5.819,9.739-14.954C298.095,157.098,294.285,151.279,288.247,151.279    M323.963,151.279c-5.986,0-9.689,5.71-9.689,15.173c0,9.251,3.646,14.851,9.797,14.851c5.98,0,9.733-5.819,9.733-14.954   C333.804,157.098,329.999,151.279,323.963,151.279 M358.285,150.945c0,0-1.239,0.083-1.847,0.18   c-2.35,0.378-3.049,1.014-3.049,3.907v22.819c0,3.112,1.938,3.297,4.671,3.451c6.672,0.378,10.548-5.548,10.548-15.133   C368.608,156.578,364.759,150.945,358.285,150.945c0,0-1.239,0.084-1.847,0.18c-2.35,0.378-3.049,1.014-3.049,3.907v22.819   c0,3.112,1.938,3.297,4.671,3.451c6.672,0.378,10.548-5.548,10.548-15.133C368.609,156.578,364.759,150.946,358.285,150.945    M323.964,151.279c-5.986,0-9.689,5.71-9.689,15.173c0,9.251,3.646,14.851,9.797,14.851c5.98,0,9.733-5.819,9.733-14.954   C333.805,157.099,330,151.279,323.964,151.279 M313.724,199.255h-4.029c-0.417,0-0.853,0.146-0.853,0.666v2.939   c0,0.462,0.436,0.731,0.853,0.731h4.029c1.354,0,2.457-0.712,2.457-2.168S315.077,199.255,313.724,199.255 M288.246,151.28   c-5.984,0-9.68,5.71-9.68,15.173c0,9.251,3.636,14.851,9.789,14.851c5.986,0,9.739-5.819,9.739-14.954   C298.095,157.099,294.284,151.28,288.246,151.28 M293.136,204.908c-0.091-0.167-1.432-2.939-1.591-3.286   c-0.148-0.308-0.519-0.326-0.655,0.013c-0.154,0.378-1.476,3.036-1.565,3.227c-0.148,0.315,0.019,0.521,0.321,0.521h3.162   C293.04,205.383,293.27,205.177,293.136,204.908c-0.091-0.167-1.432-2.939-1.591-3.286c-0.148-0.308-0.519-0.326-0.655,0.013   c-0.154,0.378-1.476,3.036-1.565,3.227c-0.148,0.315,0.019,0.521,0.321,0.521h3.162C293.04,205.383,293.27,205.177,293.136,204.908    M313.724,199.256h-4.029c-0.417,0-0.853,0.146-0.853,0.666v2.939c0,0.462,0.436,0.731,0.853,0.731h4.029   c1.354,0,2.457-0.712,2.457-2.168S315.078,199.256,313.724,199.256 M288.247,151.279c-5.984,0-9.68,5.71-9.68,15.173   c0,9.251,3.636,14.851,9.789,14.851c5.986,0,9.739-5.819,9.739-14.954C298.095,157.098,294.284,151.279,288.247,151.279    M323.963,151.279c-5.986,0-9.689,5.71-9.689,15.173c0,9.251,3.646,14.851,9.797,14.851c5.98,0,9.733-5.819,9.733-14.954   C333.804,157.098,329.999,151.279,323.963,151.279 M358.285,150.945c0,0-1.239,0.083-1.847,0.18   c-2.35,0.378-3.049,1.014-3.049,3.907v22.819c0,3.112,1.938,3.297,4.671,3.451c6.672,0.378,10.548-5.548,10.548-15.133   C368.608,156.578,364.759,150.946,358.285,150.945c0,0-1.239,0.084-1.847,0.18c-2.35,0.378-3.049,1.014-3.049,3.907v22.819   c0,3.112,1.938,3.297,4.671,3.451c6.672,0.378,10.548-5.548,10.548-15.133C368.608,156.579,364.759,150.946,358.285,150.945    M323.963,151.28c-5.986,0-9.689,5.71-9.689,15.173c0,9.251,3.646,14.851,9.797,14.851c5.98,0,9.733-5.819,9.733-14.954   C333.804,157.099,329.999,151.28,323.963,151.28 M313.724,199.256h-4.029c-0.417,0-0.853,0.146-0.853,0.666v2.939   c0,0.462,0.436,0.731,0.853,0.731h4.029c1.354,0,2.457-0.712,2.457-2.168C316.18,199.968,315.077,199.256,313.724,199.256    M288.246,151.28c-5.984,0-9.68,5.71-9.68,15.173c0,9.251,3.636,14.851,9.789,14.851c5.986,0,9.739-5.819,9.739-14.954   C298.095,157.099,294.284,151.28,288.246,151.28 M293.136,204.908c-0.091-0.167-1.432-2.939-1.591-3.286   c-0.148-0.308-0.519-0.326-0.655,0.013c-0.154,0.378-1.476,3.036-1.565,3.227c-0.148,0.315,0.019,0.521,0.321,0.521h3.162   C293.039,205.383,293.269,205.177,293.136,204.908 M288.246,151.28c-5.984,0-9.68,5.71-9.68,15.173   c0,9.251,3.636,14.851,9.789,14.851c5.986,0,9.739-5.819,9.739-14.954C298.095,157.1,294.284,151.28,288.246,151.28    M323.962,151.28c-5.986,0-9.689,5.71-9.689,15.173c0,9.251,3.646,14.851,9.797,14.851c5.98,0,9.733-5.819,9.733-14.954   C333.804,157.1,329.998,151.28,323.962,151.28 M358.284,150.946c0,0-1.239,0.083-1.847,0.18c-2.35,0.378-3.049,1.014-3.049,3.907   v22.819c0,3.112,1.938,3.297,4.671,3.451c6.672,0.378,10.548-5.548,10.548-15.133C368.608,156.58,364.758,150.947,358.284,150.946   c0,0-1.239,0.084-1.847,0.18c-2.35,0.378-3.049,1.014-3.049,3.907v22.819c0,3.112,1.938,3.297,4.671,3.451   c6.672,0.378,10.548-5.548,10.548-15.133C368.608,156.58,364.758,150.947,358.284,150.946 M323.963,151.281   c-5.986,0-9.689,5.71-9.689,15.173c0,9.251,3.646,14.851,9.797,14.851c5.98,0,9.733-5.819,9.733-14.954   C333.804,157.1,329.999,151.281,323.963,151.281 M288.246,151.281c-5.984,0-9.68,5.71-9.68,15.173   c0,9.251,3.636,14.851,9.789,14.851c5.986,0,9.739-5.819,9.739-14.954C298.095,157.1,294.284,151.281,288.246,151.281   c-5.984,0-9.68,5.71-9.68,15.173c0,9.251,3.636,14.851,9.789,14.851c5.986,0,9.739-5.819,9.739-14.954   C298.095,157.1,294.284,151.281,288.246,151.281 M323.963,151.281c-5.986,0-9.689,5.71-9.689,15.173   c0,9.251,3.646,14.851,9.797,14.851c5.98,0,9.733-5.819,9.733-14.954C333.804,157.1,329.999,151.281,323.963,151.281    M358.285,150.947c0,0-1.239,0.083-1.847,0.18c-2.35,0.378-3.049,1.014-3.049,3.907v22.819c0,3.112,1.938,3.297,4.671,3.451   c6.672,0.378,10.548-5.548,10.548-15.133C368.608,156.58,364.758,150.947,358.285,150.947c0,0-1.239,0.084-1.847,0.18   c-2.35,0.378-3.049,1.014-3.049,3.907v22.819c0,3.112,1.938,3.297,4.671,3.451c6.672,0.378,10.548-5.548,10.548-15.133   C368.608,156.581,364.758,150.948,358.285,150.947 M323.963,151.282c-5.986,0-9.689,5.71-9.689,15.173   c0,9.251,3.646,14.851,9.797,14.851c5.98,0,9.733-5.819,9.733-14.954C333.804,157.101,329.999,151.282,323.963,151.282    M288.247,151.282c-5.984,0-9.68,5.71-9.68,15.173c0,9.251,3.636,14.851,9.789,14.851c5.986,0,9.739-5.819,9.739-14.954   C298.095,157.101,294.284,151.282,288.247,151.282"></path>
</g>
<g class="st0">
	<path id="path8" class="st9" d="M365.607,180.358c-22.187,16.353-54.345,25.078-82.032,25.078   c-38.822,0-73.773-14.359-100.214-38.241c-2.077-1.878-0.216-4.437,2.277-2.975c28.535,16.603,63.818,26.591,100.264,26.591   c24.58,0,51.619-5.085,76.482-15.639C366.139,173.578,369.28,177.633,365.607,180.358"></path>
	<path id="path10" class="st9" d="M374.831,169.805c-2.825-3.623-18.746-1.712-25.893-0.864c-2.177,0.266-2.509-1.629-0.548-2.991   c12.68-8.925,33.488-6.349,35.914-3.357c2.426,3.008-0.632,23.865-12.548,33.82c-1.828,1.529-3.573,0.715-2.759-1.313   C371.673,188.418,377.673,173.445,374.831,169.805"></path>
	<path id="path12" class="st10" d="M349.437,102.946v-8.675c0-1.313,0.997-2.194,2.194-2.194h38.839   c1.246,0,2.244,0.897,2.244,2.194v7.429c-0.017,1.246-1.064,2.875-2.925,5.451l-20.126,28.735   c7.479-0.183,15.373,0.931,22.153,4.753c1.529,0.864,1.944,2.127,2.061,3.374v9.257c0,1.263-1.396,2.742-2.859,1.978   c-11.949-6.265-27.821-6.947-41.033,0.066c-1.346,0.731-2.759-0.731-2.759-1.994v-8.792c0-1.413,0.017-3.822,1.429-5.966   l23.317-33.438H351.68C350.434,105.123,349.437,104.242,349.437,102.946"></path>
	<path id="path14" class="st10" d="M207.758,157.075h-11.816c-1.13-0.083-2.028-0.931-2.111-2.011V94.42   c0-1.213,1.014-2.177,2.277-2.177h11.019c1.147,0.05,2.061,0.931,2.144,2.028v7.927h0.216c2.875-7.661,8.276-11.235,15.556-11.235   c7.396,0,12.016,3.573,15.34,11.235c2.858-7.661,9.357-11.235,16.32-11.235c4.953,0,10.37,2.044,13.678,6.631   c3.739,5.102,2.975,12.514,2.975,19.012l-0.017,38.274c0,1.213-1.014,2.194-2.277,2.194h-11.8c-1.18-0.083-2.127-1.03-2.127-2.194   v-32.142c0-2.559,0.233-8.941-0.332-11.368c-0.881-4.072-3.523-5.218-6.947-5.218c-2.859,0-5.85,1.911-7.063,4.969   s-1.097,8.177-1.097,11.617v32.142c0,1.213-1.014,2.194-2.277,2.194h-11.8c-1.197-0.083-2.127-1.03-2.127-2.194l-0.017-32.142   c0-6.764,1.113-16.719-7.279-16.719c-8.492,0-8.16,9.706-8.16,16.719v32.142C210.035,156.094,209.021,157.075,207.758,157.075"></path>
	<path id="path16" class="st10" d="M426.151,90.964c17.533,0,27.023,15.057,27.023,34.202c0,18.497-10.487,33.172-27.023,33.172   c-17.217,0-26.591-15.057-26.591-33.82C399.56,105.638,409.05,90.964,426.151,90.964 M426.251,103.345   c-8.708,0-9.257,11.866-9.257,19.262c0,7.412-0.116,23.234,9.157,23.234c9.157,0,9.589-12.764,9.589-20.541   c0-5.119-0.216-11.235-1.762-16.087C432.649,104.99,430.006,103.345,426.251,103.345"></path>
	<path id="path18" class="st10" d="M475.909,157.075h-11.766c-1.18-0.083-2.127-1.03-2.127-2.194l-0.017-60.66   c0.1-1.113,1.08-1.978,2.277-1.978h10.952c1.03,0.05,1.878,0.748,2.111,1.695v9.273h0.216c3.307-8.293,7.944-12.248,16.104-12.248   c5.302,0,10.47,1.911,13.794,7.146c3.091,4.853,3.091,13.013,3.091,18.879v38.174c-0.133,1.064-1.113,1.911-2.277,1.911h-11.849   c-1.08-0.083-1.978-0.881-2.094-1.911v-32.939c0-6.631,0.764-16.337-7.396-16.337c-2.875,0-5.518,1.928-6.831,4.853   c-1.662,3.706-1.878,7.396-1.878,11.484v32.657C478.202,156.094,477.172,157.075,475.909,157.075"></path>
	<g id="use28" transform="translate(244.36719)" class="st1">
		<path id="path30" class="st11" d="M318.475,128.107v-2.559c-8.542,0-17.566,1.828-17.566,11.899c0,5.102,2.642,8.559,7.179,8.559    c3.324,0,6.299-2.044,8.177-5.368C318.591,136.55,318.475,132.711,318.475,128.107 M330.391,156.908    c-0.781,0.698-1.911,0.748-2.792,0.283c-3.922-3.257-4.62-4.77-6.781-7.877c-6.482,6.614-11.068,8.592-19.478,8.592    c-9.938,0-17.683-6.132-17.683-18.414c0-9.589,5.202-16.121,12.597-19.312c6.415-2.825,15.373-3.324,22.22-4.105v-1.529    c0-2.809,0.216-6.132-1.429-8.559c-1.446-2.177-4.205-3.075-6.631-3.075c-4.504,0-8.526,2.31-9.506,7.096    c-0.199,1.064-0.981,2.111-2.044,2.161l-11.467-1.23c-0.964-0.216-2.028-0.997-1.762-2.476    c2.642-13.894,15.19-18.082,26.425-18.082c5.75,0,13.262,1.529,17.799,5.883c5.75,5.368,5.202,12.531,5.202,20.325v18.414    c0,5.534,2.293,7.961,4.454,10.952c0.764,1.064,0.931,2.343-0.033,3.141c-2.41,2.011-6.698,5.75-9.057,7.844L330.391,156.908"></path>
	</g>
	<path id="path30_00000098212556161988803040000005322956390688268179_" class="st10" d="M163.567,128.107v-2.559   c-8.542,0-17.566,1.828-17.566,11.899c0,5.102,2.642,8.559,7.179,8.559c3.324,0,6.299-2.044,8.177-5.368   C163.684,136.55,163.567,132.711,163.567,128.107 M175.483,156.908c-0.781,0.698-1.911,0.748-2.792,0.283   c-3.922-3.257-4.62-4.77-6.781-7.877c-6.481,6.614-11.068,8.592-19.478,8.592c-9.938,0-17.683-6.132-17.683-18.414   c0-9.589,5.202-16.121,12.597-19.312c6.415-2.825,15.373-3.324,22.22-4.105v-1.529c0-2.809,0.216-6.132-1.429-8.559   c-1.446-2.177-4.205-3.075-6.631-3.075c-4.504,0-8.526,2.31-9.506,7.096c-0.199,1.064-0.981,2.111-2.044,2.161l-11.467-1.23   c-0.964-0.216-2.028-0.997-1.762-2.476c2.642-13.894,15.19-18.082,26.425-18.082c5.75,0,13.262,1.529,17.799,5.883   c5.75,5.368,5.202,12.531,5.202,20.325v18.414c0,5.534,2.293,7.961,4.454,10.952c0.764,1.064,0.931,2.343-0.033,3.141   c-2.41,2.011-6.698,5.75-9.057,7.844L175.483,156.908"></path>
</g>
<path class="st12" d="M188.391,186.956l-20.524-49.337l-20.522,49.337l-30.482-73.997h12.366l18.316,47.728l20.322-49.868  l20.255,49.868l18.383-47.728h12.368L188.391,186.956 M257.044,158.805c0,10.576-5.75,17.592-16.98,17.592  c-8.156,0-15.91-6.024-15.91-17.455c0-11.894,7.754-17.438,15.91-17.438C251.294,141.504,257.044,148.246,257.044,158.805z   M268.073,185.211v-52.537h-11.029v6.879c-3.544-5.014-9.962-7.889-16.98-7.889c-15.041,0-27.275,11.432-27.275,27.278  c0,16.24,13.17,27.141,27.275,27.141c7.018,0,13.102-3.08,16.98-8.026v7.153L268.073,185.211 M283.649,120.181  c-3.544,0-6.351-2.755-6.351-6.298c0-3.542,2.807-6.417,6.351-6.417c3.542,0,6.282,2.875,6.282,6.417  C289.931,117.426,287.192,120.181,283.649,120.181z M278.099,132.673h11.031v52.537h-11.031V132.673L278.099,132.673z   M317.14,142.24v42.971h-11.03V142.24h-10.229v-9.566h10.229v-18.91l11.029-10.901v29.811h11.765v9.566H317.14 M364.936,143.369  c-1.605-0.941-3.477-1.865-6.886-1.865c-6.417,0-11.363,4.004-11.363,12.766v30.94h-11.031v-52.537h11.031v7.359  c3.14-5.955,7.887-8.368,13.169-8.368c3.809,0,8.824,1.147,12.433,4.484L364.936,143.369 M414.47,158.805  c0,10.097-6.217,17.592-16.512,17.592c-10.36,0-16.444-7.496-16.444-17.592c0-10.097,6.084-17.301,16.444-17.301  C408.253,141.504,414.47,148.708,414.47,158.805z M425.767,158.805c0-15.71-12.366-27.141-27.809-27.141  c-15.508,0-27.74,11.432-27.74,27.141s12.232,27.415,27.74,27.415C413.401,186.22,425.767,174.515,425.767,158.805 M449.164,186.22  c-5.481,0-10.829-1.266-17.847-5.014V169.98c5.146,3.542,12.232,6.811,17.514,6.811c4.278,0,7.821-0.993,7.821-4.877  c0-2.67-0.936-4.415-6.417-7.496l-9.559-5.339c-6.015-3.474-9.157-7.29-9.157-12.835c0-8.488,6.351-14.58,17.781-14.58  c5.281,0,10.898,1.352,16.044,4.09v10.884c-4.812-3.063-10.762-5.476-16.044-5.476c-4.21,0-6.751,1.609-6.751,4.484  c0,1.728,0.2,2.738,4.68,5.408l9.157,5.288c7.353,4.21,11.365,7.752,11.365,14.495C467.749,180.744,459.993,186.22,449.164,186.22   M510.196,152.661h-25.334c1.67-6.349,6.284-11.363,13.435-11.363C505.117,141.298,509.862,145.97,510.196,152.661z M522.43,161.68  v-0.804c0-19.577-9.826-29.212-24.133-29.212c-14.038,0-25.469,10.627-25.469,26.474c0,18.585,12.835,28.083,27.141,28.083  c7.554,0,15.041-2.276,19.519-6.948l-7.018-6.897c-3.209,2.481-7.087,4.022-12.501,4.022c-9.626,0-14.64-7.016-15.71-14.717  L522.43,161.68"></path>
<g>
	<path class="st13" d="M244.63,278.506c-6.935,0-12.483-5.664-12.483-12.483v-163.21c0-48.2,39.3-87.5,87.5-87.5   s87.5,39.3,87.5,87.5v163.094c0,6.935-5.664,12.483-12.483,12.483H244.63V278.506z"></path>
	<path class="st14" d="M319.647,21.438c-44.733,0-81.374,36.641-81.374,81.374v101.833c0,3.468,2.89,6.242,6.242,6.242h150.033   c3.468,0,6.242-2.89,6.242-6.242V102.812C401.02,58.08,364.379,21.438,319.647,21.438"></path>
	<path class="st13" d="M306.585,204.645v-21.731c-5.664-0.809-11.212-2.427-16.182-4.508l-28.319,25.892h44.501V204.645   L306.585,204.645z M265.898,163.958h-21.499v32.943l29.359-26.932C271.215,168.119,268.557,165.923,265.898,163.958    M376.978,204.645l-28.319-25.892c-5.317,1.965-10.518,3.468-16.182,4.508v21.499C332.477,204.645,376.978,204.645,376.978,204.645   z M394.663,163.958h-21.499c-2.427,2.196-5.317,4.277-7.86,6.242l29.359,26.932V163.958z"></path>
	<path class="st15" d="M256.189,204.645l30.168-27.51c-1.849-0.809-3.583-1.849-5.433-2.89l-33.174,30.4H256.189L256.189,204.645z    M394.663,204.645v-2.196l-32.943-30.168c-1.849,1.04-3.468,1.965-5.317,3.005l32.018,29.359H394.663L394.663,204.645z    M244.399,133.905v24.851h16.413C253.993,151.706,248.444,143.499,244.399,133.905 M327.622,204.645v-20.806   c-2.659,0.231-5.433,0.462-8.091,0.462c-2.89,0-5.433-0.231-8.091-0.462v20.806H327.622z M394.663,133.905   c-3.814,9.363-9.478,17.801-16.414,24.851h16.414V133.905z"></path>
	<path class="st13" d="M381.602,110.441c1.04-0.462,0.809-1.965-0.231-1.849c-38.028,5.317-86.806,33.405-86.806,33.405   s-21.846-18.378-36.41-25.314c-1.04-0.462-1.849,0.809-1.156,1.618c19.072,22.308,37.682,52.824,37.682,52.824   S339.759,125.814,381.602,110.441"></path>
	<path class="st15" d="M316.41,94.952c-2.196-2.659-5.086-4.855-8.322-6.473V74.031l0,0h3.236h7.629h1.618l3.005,20.806h-7.166   V94.952z M304.62,86.977c-2.427-0.809-5.086-1.156-7.86-1.156c-0.462,0-0.578,0-1.04,0l0.809-5.086   c0.462-2.427,0.809-4.855,1.04-6.473v-0.231h7.051V86.977z M357.906,95.877L357.906,95.877c-0.231-1.387-0.809-2.196-1.618-2.659   c-6.704-2.89-21.499-5.433-30.168-6.011l-1.965-13.177h1.618v-5.086h-33.752v5.086h2.196l-2.659,12.137   c-4.277,0.809-8.322,2.89-11.559,5.664l3.236,2.89c3.583-2.89,8.322-4.624,13.408-4.624c11.906,0,21.731,9.709,21.731,21.731   c0,0.578-0.231,1.156-0.231,1.965h15.951c1.618-6.473,7.513-11.559,14.564-11.559c3.468,0,6.704,1.156,9.363,3.236l0.578,0.578   L357.906,95.877z M305.082,112.522c-1.618,2.659-3.583,4.046-4.277,4.624c-1.387,1.156-3.005,2.659-4.046,4.277   c-0.809-1.849-2.659-3.005-4.046-4.277c-0.809-0.578-2.659-1.965-4.277-4.624c-0.578-0.809-1.04-1.965-1.04-3.005   c0-3.005,2.196-5.433,5.086-5.433c1.618,0,3.005,0.809,4.046,2.196c1.04-1.156,2.427-2.196,4.046-2.196   c2.89,0,5.086,2.427,5.086,5.433C306.007,110.441,305.66,111.481,305.082,112.522 M296.76,92.641   c-10.287,0-18.841,8.322-18.841,18.841s8.322,18.841,18.841,18.841c10.287,0,18.841-8.322,18.841-18.841   S307.047,92.641,296.76,92.641 M348.775,121.422c-2.427,0-4.508-1.965-4.508-4.508s1.965-4.508,4.508-4.508   c2.427,0,4.508,1.965,4.508,4.508C353.051,119.341,351.202,121.422,348.775,121.422 M348.775,104.546   c-6.935,0-12.368,5.433-12.368,12.368s5.433,12.368,12.368,12.368s12.368-5.433,12.368-12.368   C361.143,110.325,355.479,104.546,348.775,104.546"></path>
	<path class="st13" d="M272.14,50.22c2.427-2.196,5.317-0.809,8.091,2.196c3.005,3.236,3.468,6.473,0.809,8.9l-0.462,0.462   l-9.709-10.287L272.14,50.22z M284.277,63.281L284.277,63.281c4.855-4.624,2.89-10.981-0.578-14.564   c-3.468-3.583-8.669-5.895-13.524-2.081c-0.462,0.231-0.578,0.578-0.809,0.809l-1.618,1.618c-1.04,1.04-1.849,1.849-2.659,2.89   l15.026,15.951C281.271,66.286,282.658,64.668,284.277,63.281 M256.304,85.012l-0.578,1.965l-4.855-1.387l0.578-1.849   c0.462-1.618,1.387-2.427,3.005-1.965C256.304,82.122,256.767,83.509,256.304,85.012 M259.656,82.122   c-0.462-2.89-1.387-4.624-3.814-5.317c-3.236-0.809-6.242,0.578-7.629,4.624c-0.231,0.462-0.231,0.809-0.462,1.387   c-0.578,2.196-1.04,4.277-1.387,6.473l21.037,5.895c0.231-1.618,0.578-3.236,1.04-4.855l-8.9-2.427   c0.578-1.965,1.04-2.196,5.895-2.196h4.277c0.578-1.618,1.156-3.468,1.965-5.086C266.823,81.082,261.275,80.735,259.656,82.122    M315.485,36.812l-1.965,0.231l-0.462-5.086l1.965-0.231c1.618,0,2.89,0.578,2.89,2.196   C318.028,35.771,316.872,36.812,315.485,36.812 M319.184,38.777c2.427-1.156,3.814-3.005,3.583-5.433   c-0.231-3.468-2.89-5.664-6.935-5.664c-0.462,0-1.04,0-1.387,0c-2.196,0.231-4.508,0.462-6.704,0.809l1.618,21.846   c1.618-0.462,3.236-0.578,4.855-0.809l-0.578-9.131c1.965-0.231,2.427,0.231,4.046,4.855l1.387,4.046c1.849,0,3.583,0,5.317,0.231   C322.536,45.249,320.918,39.817,319.184,38.777 M383.682,84.434l-0.578-1.965l4.855-1.387l0.578,1.849   c0.462,1.618,0,2.89-1.618,3.236C385.3,86.63,384.029,85.705,383.682,84.434 M382.411,88.248c1.849,2.196,3.583,3.236,6.011,2.427   c3.236-1.04,5.086-3.814,4.046-7.86c-0.231-0.462-0.231-0.809-0.462-1.387c-0.578-2.196-1.387-4.277-2.196-6.242l-20.921,6.126   c0.578,1.387,1.156,3.005,1.849,4.624l8.669-2.659c0.578,1.965,0.462,2.427-3.814,5.086l-3.583,2.427   c0.462,1.849,0.809,3.468,1.04,5.317C376.863,93.103,381.833,90.444,382.411,88.248 M337.1,35.771L337.1,35.771l-0.231,8.091   c-0.578-0.231-1.04-0.462-1.618-0.462c-0.578-0.231-1.04-0.231-1.618-0.462L337.1,35.771z M341.146,30.685   c-0.809-0.231-1.618-0.462-2.427-0.578c-0.809-0.116-1.618-0.462-2.427-0.578l-11.212,20.228c1.618,0.231,3.236,0.462,4.855,0.578   l2.196-4.277c0.231,0,0.578,0.231,0.809,0.231c0.578,0.231,1.04,0.231,1.618,0.462c0.578,0.231,1.04,0.231,1.618,0.462   c0.231,0,0.578,0.231,0.809,0.231l-0.231,4.624c1.618,0.578,3.005,1.04,4.624,1.849L341.146,30.685z M353.167,58.889   c-1.849,0.231-3.468,0-5.317-1.156c-4.508-2.659-5.433-8.091-2.196-13.755c3.468-5.895,8.669-8.091,13.408-5.433   c1.387,0.809,2.659,1.965,3.583,3.468l-1.965,3.583c-1.04-1.618-1.618-2.427-2.659-3.005c-2.427-1.387-5.433-0.578-7.629,3.583   c-2.196,4.046-1.965,7.051,0.578,8.553c1.04,0.578,2.659,0.809,4.508,0.578L353.167,58.889z M368.309,71.835   c1.156,1.965,3.236,1.965,7.629-0.809c3.236-1.965,5.433-4.277,3.814-6.704c-1.387-2.196-4.046-1.618-7.629,0.809   C368.54,67.558,366.922,69.639,368.309,71.835 M383.451,62.125c2.196,3.468,1.965,8.9-4.855,13.177   c-7.051,4.624-11.906,1.849-13.986-1.156c-2.196-3.468-1.849-8.9,4.855-13.408C375.822,56.808,381.255,58.658,383.451,62.125    M258.963,66.171c0.231-0.462,0.462-0.578,0.578-1.04c1.156-1.965,2.659-3.814,3.814-5.664l-3.236-1.965   c-1.387,1.849-2.659,3.583-3.814,5.664c-1.04,1.618-1.965,3.468-3.005,5.317l18.61,11.559c0.809-1.849,1.849-3.583,2.89-5.317   c1.156-1.965,2.659-3.814,4.046-5.664l-3.236-1.965c-1.156,1.618-2.659,3.468-3.583,5.086c-0.231,0.231-0.231,0.462-0.462,0.578   c-0.231,0.462-0.462,0.578-0.578,1.04l-4.508-2.89l0,0c0.231-0.462,0.462-0.578,0.578-1.04c1.04-1.849,2.196-3.468,3.468-5.086   l-3.236-1.965c-1.156,1.618-2.427,3.236-3.468,5.086c-0.231,0.462-0.462,0.578-0.578,1.04L258.963,66.171L258.963,66.171    M371.892,48.602c-1.849-1.849-3.583-3.468-5.664-4.855l-2.659,2.89c1.156,1.04,2.659,1.965,3.814,3.236l0,0l-12.368,12.946   c0.578,0.578,1.156,1.04,1.849,1.618c0.578,0.578,1.156,1.156,1.849,1.849l12.368-12.946l0,0c1.156,1.156,2.196,2.427,3.468,3.583   l2.659-2.89C375.36,51.954,373.742,50.335,371.892,48.602 M295.835,31.726c-2.427,0.809-4.624,1.849-6.935,2.89l1.156,3.583   c1.387-0.578,3.005-1.387,4.624-1.965l0,0l5.895,16.991c0.809-0.231,1.618-0.578,2.427-0.809c0.809-0.231,1.618-0.578,2.427-0.809   l-5.895-16.991l0,0c1.156-0.462,2.89-0.809,4.508-1.156l-1.156-3.583C300.459,30.339,298.263,30.917,295.835,31.726"></path>
	<path class="st14" d="M263.818,240.477c-1.618,1.156-3.236,1.849-5.433,1.849c-5.664,0-9.709-4.624-9.709-11.79   c0-7.282,3.814-12.137,9.709-12.137c1.849,0,3.583,0.462,5.433,1.156v4.508c-1.849-1.04-2.89-1.387-4.046-1.387   c-3.005,0-5.433,2.427-5.433,7.513c0,4.855,1.849,7.629,5.086,7.629c1.387,0,3.005-0.809,4.508-1.849v4.508H263.818z    M267.285,218.631h13.986v3.814h-8.438v5.433h7.86v4.046h-7.86v5.895h8.9v4.046h-14.333v-23.233H267.285z M292.021,227.878   c1.849,0,2.89-1.04,2.89-2.89s-1.04-2.659-3.005-2.659h-1.387v5.433h1.503V227.878z M284.855,218.631h7.629   c4.855,0,7.629,2.659,7.629,6.473c0,2.659-1.156,4.277-4.046,5.433c2.196,1.156,3.005,6.473,5.086,11.328h-5.664l-1.156-4.508   c-1.387-5.086-1.849-5.433-4.046-5.433v9.941h-5.433C284.855,241.864,284.855,218.631,284.855,218.631z M307.625,222.446h-5.433   v-3.814h16.182v3.814h-5.433v19.419h-5.317V222.446L307.625,222.446z M320.687,218.631h5.433v23.233h-5.433V218.631z    M330.281,218.631h12.483v3.814h-7.051v5.664h6.935v4.046h-6.935v9.709h-5.433V218.631L330.281,218.631z M345.654,218.631h5.433   v23.233h-5.433V218.631z M355.363,218.631h13.755v3.814h-8.553v5.433h7.86v4.046h-7.86v5.895h8.9v4.046h-14.102V218.631z    M379.405,237.819c3.814,0,5.086-3.005,5.086-7.629c0-4.508-1.156-7.86-4.855-7.86h-1.618v15.373h1.387V237.819z M372.817,218.631   h7.051c7.513,0,10.287,5.895,10.287,11.559c0,5.433-2.659,11.906-9.941,11.906h-7.282v-23.464H372.817z M240.006,263.479   c2.196,1.849,3.583,2.427,5.086,2.427c1.156,0,2.196-0.809,2.196-1.965c0-3.468-7.513-6.011-7.513-11.79   c0-3.468,3.005-5.895,6.935-5.895c1.618,0,3.468,0.462,5.317,1.387v4.508c-2.427-1.156-3.468-1.618-4.624-1.618   c-1.156,0-2.196,0.578-2.196,1.618c0,2.89,7.629,6.011,7.629,11.79c0,3.583-3.005,6.473-6.935,6.473   c-1.849,0-3.583-0.578-5.895-1.849V263.479z M259.425,250.765h-5.433v-4.046h16.182v4.046h-5.317v19.188h-5.433V250.765z    M279.884,261.283l-1.849-8.553l0,0l-1.849,8.553H279.884z M275.03,246.488h5.664l6.242,23.464h-5.317l-1.156-4.855h-5.433   l-1.156,4.855h-5.317L275.03,246.488z M288.9,246.719h5.086l6.473,13.177l0,0v-13.177h5.317v23.233h-4.855l-6.704-13.755l0,0   v13.755H288.9V246.719z M316.641,266.138c3.814,0,5.086-3.005,5.086-7.629c0-4.508-1.156-7.86-4.855-7.86h-1.618v15.373h1.387   V266.138z M310.053,246.719h7.051c7.513,0,10.287,5.895,10.287,11.559c0,5.433-2.659,11.906-9.941,11.906h-7.282v-23.464H310.053   L310.053,246.719z M338.719,261.283l-1.849-8.553l0,0l-1.849,8.553H338.719z M334.095,246.488h5.664l6.242,23.464h-5.317   l-1.156-4.855h-5.433l-1.156,4.855h-5.317L334.095,246.488z M355.132,256.197c1.849,0,2.89-1.04,2.89-2.89s-1.04-2.659-3.005-2.659   h-1.618v5.433C353.283,256.197,355.132,256.197,355.132,256.197z M348.081,246.719h7.629c4.855,0,7.629,2.659,7.629,6.473   c0,2.659-1.156,4.277-4.046,5.433c2.196,1.156,3.005,6.473,5.086,11.328h-5.664l-1.156-4.508c-1.387-5.086-1.849-5.433-4.046-5.433   v9.941h-5.433V246.719L348.081,246.719z M373.626,266.138c3.814,0,5.086-3.005,5.086-7.629c0-4.508-1.156-7.86-4.855-7.86h-1.734   v15.373h1.387v0.116H373.626z M366.922,246.719h7.051c7.513,0,10.287,5.895,10.287,11.559c0,5.433-2.659,11.906-9.941,11.906   h-7.282v-23.464H366.922L366.922,246.719z M386.572,263.479c2.196,1.849,3.583,2.427,5.086,2.427c1.156,0,2.196-0.809,2.196-1.965   c0-3.468-7.513-6.011-7.513-11.79c0-3.468,3.005-5.895,6.935-5.895c1.618,0,3.468,0.462,5.317,1.387v4.508   c-2.427-1.156-3.468-1.618-4.624-1.618s-2.196,0.578-2.196,1.618c0,2.89,7.629,6.011,7.629,11.79c0,3.583-3.005,6.473-6.935,6.473   c-1.849,0-3.583-0.578-5.895-1.849V263.479z"></path>
</g>
</svg>
